<?xml version="1.0" encoding="UTF-8" standalone="no"?><!-- Generator: Gravit.io --><svg xmlns="http://www.w3.org/2000/svg" xmlns:xlink="http://www.w3.org/1999/xlink" style="isolation:isolate" viewBox="0 0 200 27" width="200pt" height="27pt"><defs><clipPath id="_clipPath_sAYXoD6tP0PNODaTP01q32GoWbN54ooS"><rect width="200" height="27"/></clipPath></defs><g clip-path="url(#_clipPath_sAYXoD6tP0PNODaTP01q32GoWbN54ooS)"><g><path d=" M 105.951 19.335 L 105.951 18.585 L 108.384 18.585 L 108.384 18.585 Q 109.297 18.585 109.297 17.951 L 109.297 17.951 L 109.297 4.025 L 109.297 4.025 Q 109.297 3.697 109.077 3.544 L 109.077 3.544 L 109.077 3.544 Q 108.857 3.392 108.384 3.392 L 108.384 3.392 L 105.951 3.392 L 105.951 2.642 L 116.969 2.642 L 116.969 2.642 Q 118.963 2.642 120.704 3.158 L 120.704 3.158 L 120.704 3.158 Q 122.445 3.673 123.492 4.576 L 123.492 4.576 L 123.492 4.576 Q 124.54 5.479 124.54 6.628 L 124.54 6.628 L 124.54 6.628 Q 124.54 8.222 122.985 9.253 L 122.985 9.253 L 122.985 9.253 Q 121.431 10.285 119.369 10.59 L 119.369 10.59 L 119.369 10.684 L 119.369 10.684 Q 120.755 10.754 122.124 11.281 L 122.124 11.281 L 122.124 11.281 Q 123.492 11.809 124.388 12.723 L 124.388 12.723 L 124.388 12.723 Q 125.284 13.638 125.284 14.786 L 125.284 14.786 L 125.284 14.786 Q 125.284 16.217 124.202 17.248 L 124.202 17.248 L 124.202 17.248 Q 123.121 18.28 121.312 18.807 L 121.312 18.807 L 121.312 18.807 Q 119.504 19.335 117.341 19.335 L 117.341 19.335 L 105.951 19.335 Z  M 112.406 10.238 L 116.834 10.238 L 116.834 10.238 Q 119.572 10.238 120.569 9.265 L 120.569 9.265 L 120.569 9.265 Q 121.566 8.292 121.566 6.628 L 121.566 6.628 L 121.566 6.628 Q 121.566 5.221 120.281 4.306 L 120.281 4.306 L 120.281 4.306 Q 118.997 3.392 117.104 3.392 L 117.104 3.392 L 113.319 3.392 L 113.319 3.392 Q 112.846 3.392 112.626 3.544 L 112.626 3.544 L 112.626 3.544 Q 112.406 3.697 112.406 4.025 L 112.406 4.025 L 112.406 10.238 Z  M 113.319 18.585 L 116.969 18.585 L 116.969 18.585 Q 119.031 18.585 120.366 17.729 L 120.366 17.729 L 120.366 17.729 Q 121.701 16.873 121.701 14.786 L 121.701 14.786 L 121.701 14.786 Q 121.701 12.7 120.366 11.844 L 120.366 11.844 L 120.366 11.844 Q 119.031 10.988 116.969 10.988 L 116.969 10.988 L 112.406 10.988 L 112.406 17.951 L 112.406 17.951 Q 112.406 18.585 113.319 18.585 L 113.319 18.585 Z  M 134.95 19.616 L 134.95 19.616 Q 132.483 19.616 131.452 18.561 L 131.452 18.561 L 131.452 18.561 Q 130.421 17.506 130.421 16.029 L 130.421 16.029 L 130.421 9.722 L 130.421 9.722 Q 130.421 9.441 130.252 9.324 L 130.252 9.324 L 130.252 9.324 Q 130.083 9.206 129.678 9.206 L 129.678 9.206 L 128.258 9.206 L 128.258 8.644 L 132.855 8.644 L 132.855 16.474 L 132.855 16.474 Q 132.855 17.506 133.446 18.233 L 133.446 18.233 L 133.446 18.233 Q 134.038 18.96 135.457 18.96 L 135.457 18.96 L 135.457 18.96 Q 136.64 18.96 137.57 18.385 L 137.57 18.385 L 137.57 18.385 Q 138.499 17.811 139.023 16.814 L 139.023 16.814 L 139.023 16.814 Q 139.547 15.818 139.547 14.599 L 139.547 14.599 L 139.547 9.722 L 139.547 9.722 Q 139.547 9.441 139.378 9.324 L 139.378 9.324 L 139.378 9.324 Q 139.209 9.206 138.803 9.206 L 138.803 9.206 L 137.384 9.206 L 137.384 8.644 L 141.981 8.644 L 141.981 18.256 L 141.981 18.256 Q 141.981 18.538 142.15 18.655 L 142.15 18.655 L 142.15 18.655 Q 142.319 18.772 142.724 18.772 L 142.724 18.772 L 144.144 18.772 L 144.144 19.335 L 139.547 19.335 L 139.547 17.412 L 139.412 17.389 L 139.412 17.389 Q 138.634 18.514 137.485 19.065 L 137.485 19.065 L 137.485 19.065 Q 136.336 19.616 134.95 19.616 L 134.95 19.616 Z  M 152.796 19.616 L 152.796 19.616 Q 151.208 19.616 149.839 18.878 L 149.839 18.878 L 149.839 18.878 Q 148.47 18.139 147.659 16.85 L 147.659 16.85 L 147.659 16.85 Q 146.848 15.56 146.848 13.989 L 146.848 13.989 L 146.848 13.989 Q 146.848 12.418 147.659 11.129 L 147.659 11.129 L 147.659 11.129 Q 148.47 9.839 149.839 9.101 L 149.839 9.101 L 149.839 9.101 Q 151.208 8.362 152.796 8.362 L 152.796 8.362 L 152.796 8.362 Q 154.114 8.362 155.162 8.96 L 155.162 8.96 L 155.162 8.96 Q 156.21 9.558 156.717 10.402 L 156.717 10.402 L 156.852 10.379 L 156.852 3.72 L 156.852 3.72 Q 156.852 3.439 156.683 3.322 L 156.683 3.322 L 156.683 3.322 Q 156.514 3.205 156.109 3.205 L 156.109 3.205 L 153.675 3.205 L 153.675 2.642 L 159.286 2.642 L 159.286 18.256 L 159.286 18.256 Q 159.286 18.538 159.455 18.655 L 159.455 18.655 L 159.455 18.655 Q 159.624 18.772 160.029 18.772 L 160.029 18.772 L 161.787 18.772 L 161.787 19.335 L 156.852 19.335 L 156.852 17.6 L 156.717 17.576 L 156.717 17.576 Q 156.075 18.514 155.078 19.065 L 155.078 19.065 L 155.078 19.065 Q 154.081 19.616 152.796 19.616 L 152.796 19.616 Z  M 153.168 18.96 L 153.168 18.96 Q 154.182 18.96 155.027 18.444 L 155.027 18.444 L 155.027 18.444 Q 155.872 17.928 156.362 17.025 L 156.362 17.025 L 156.362 17.025 Q 156.852 16.123 156.852 15.068 L 156.852 15.068 L 156.852 12.911 L 156.852 12.911 Q 156.852 11.856 156.362 10.953 L 156.362 10.953 L 156.362 10.953 Q 155.872 10.05 155.027 9.535 L 155.027 9.535 L 155.027 9.535 Q 154.182 9.019 153.168 9.019 L 153.168 9.019 L 153.168 9.019 Q 151.512 9.019 150.667 10.308 L 150.667 10.308 L 150.667 10.308 Q 149.822 11.598 149.822 13.989 L 149.822 13.989 L 149.822 13.989 Q 149.822 16.381 150.667 17.67 L 150.667 17.67 L 150.667 17.67 Q 151.512 18.96 153.168 18.96 L 153.168 18.96 Z  M 170.439 19.616 L 170.439 19.616 Q 168.851 19.616 167.482 18.878 L 167.482 18.878 L 167.482 18.878 Q 166.113 18.139 165.302 16.85 L 165.302 16.85 L 165.302 16.85 Q 164.491 15.56 164.491 13.989 L 164.491 13.989 L 164.491 13.989 Q 164.491 12.418 165.302 11.129 L 165.302 11.129 L 165.302 11.129 Q 166.113 9.839 167.482 9.101 L 167.482 9.101 L 167.482 9.101 Q 168.851 8.362 170.439 8.362 L 170.439 8.362 L 170.439 8.362 Q 171.758 8.362 172.805 8.96 L 172.805 8.96 L 172.805 8.96 Q 173.853 9.558 174.36 10.402 L 174.36 10.402 L 174.495 10.379 L 174.495 3.72 L 174.495 3.72 Q 174.495 3.439 174.326 3.322 L 174.326 3.322 L 174.326 3.322 Q 174.157 3.205 173.752 3.205 L 173.752 3.205 L 171.318 3.205 L 171.318 2.642 L 176.929 2.642 L 176.929 18.256 L 176.929 18.256 Q 176.929 18.538 177.098 18.655 L 177.098 18.655 L 177.098 18.655 Q 177.267 18.772 177.673 18.772 L 177.673 18.772 L 179.43 18.772 L 179.43 19.335 L 174.495 19.335 L 174.495 17.6 L 174.36 17.576 L 174.36 17.576 Q 173.718 18.514 172.721 19.065 L 172.721 19.065 L 172.721 19.065 Q 171.724 19.616 170.439 19.616 L 170.439 19.616 Z  M 170.811 18.96 L 170.811 18.96 Q 171.825 18.96 172.67 18.444 L 172.67 18.444 L 172.67 18.444 Q 173.515 17.928 174.005 17.025 L 174.005 17.025 L 174.005 17.025 Q 174.495 16.123 174.495 15.068 L 174.495 15.068 L 174.495 12.911 L 174.495 12.911 Q 174.495 11.856 174.005 10.953 L 174.005 10.953 L 174.005 10.953 Q 173.515 10.05 172.67 9.535 L 172.67 9.535 L 172.67 9.535 Q 171.825 9.019 170.811 9.019 L 170.811 9.019 L 170.811 9.019 Q 169.155 9.019 168.31 10.308 L 168.31 10.308 L 168.31 10.308 Q 167.465 11.598 167.465 13.989 L 167.465 13.989 L 167.465 13.989 Q 167.465 16.381 168.31 17.67 L 168.31 17.67 L 168.31 17.67 Q 169.155 18.96 170.811 18.96 L 170.811 18.96 Z  M 185.041 24.915 L 185.041 24.915 Q 183.723 24.915 182.878 24.329 L 182.878 24.329 L 182.878 24.329 Q 182.438 24.047 182.185 23.66 L 182.185 23.66 L 182.185 23.66 Q 181.931 23.274 181.931 22.852 L 181.931 22.852 L 181.931 22.852 Q 181.931 22.547 182.083 22.277 L 182.083 22.277 L 182.083 22.277 Q 182.235 22.007 182.472 21.867 L 182.472 21.867 L 182.472 21.867 Q 182.979 21.515 183.621 21.515 L 183.621 21.515 L 183.621 21.515 Q 184.399 21.515 184.787 21.855 L 184.787 21.855 L 184.787 21.855 Q 185.176 22.195 185.176 22.711 L 185.176 22.711 L 185.176 22.711 Q 185.176 22.992 184.906 23.367 L 184.906 23.367 L 184.906 23.367 Q 184.703 23.602 184.703 23.813 L 184.703 23.813 L 184.703 23.813 Q 184.703 24.164 185.379 24.164 L 185.379 24.164 L 185.379 24.164 Q 186.393 24.164 187.086 23.613 L 187.086 23.613 L 187.086 23.613 Q 187.778 23.063 188.116 22.312 L 188.116 22.312 L 189.029 20.273 L 184.23 10.59 L 184.23 10.59 Q 183.824 9.839 183.452 9.523 L 183.452 9.523 L 183.452 9.523 Q 183.08 9.206 182.235 9.206 L 182.235 9.206 L 181.12 9.206 L 181.12 8.644 L 188.759 8.644 L 188.759 9.206 L 187.677 9.206 L 187.677 9.206 Q 187.271 9.206 186.934 9.359 L 186.934 9.359 L 186.934 9.359 Q 186.596 9.511 186.596 9.769 L 186.596 9.769 L 186.596 9.769 Q 186.596 10.168 186.798 10.543 L 186.798 10.543 L 190.313 17.74 L 193.119 11.317 L 193.119 11.317 Q 193.254 11.035 193.372 10.684 L 193.372 10.684 L 193.372 10.684 Q 193.491 10.332 193.491 10.121 L 193.491 10.121 L 193.491 10.121 Q 193.491 9.722 193.153 9.464 L 193.153 9.464 L 193.153 9.464 Q 192.815 9.206 192.274 9.206 L 192.274 9.206 L 191.463 9.206 L 191.463 8.644 L 197.614 8.644 L 197.614 9.206 L 196.837 9.206 L 196.837 9.206 Q 196.093 9.206 195.468 9.546 L 195.468 9.546 L 195.468 9.546 Q 194.843 9.886 194.505 10.59 L 194.505 10.59 L 189.063 22.594 L 189.063 22.594 Q 188.691 23.461 187.643 24.188 L 187.643 24.188 L 187.643 24.188 Q 186.596 24.915 185.041 24.915 L 185.041 24.915 Z " fill="rgb(255,136,132)"/><path d=" M 6.513 19.335 L 6.513 18.585 L 9.758 18.585 L 9.758 18.585 Q 10.671 18.585 10.671 17.951 L 10.671 17.951 L 10.671 3.955 L 10.671 3.955 Q 10.671 3.627 10.468 3.474 L 10.468 3.474 L 10.468 3.474 Q 10.265 3.322 9.758 3.322 L 9.758 3.322 L 8.541 3.322 L 8.541 3.322 Q 6.412 3.322 4.857 4.822 L 4.857 4.822 L 4.857 4.822 Q 3.877 5.783 3.539 7.225 L 3.539 7.225 L 3.539 7.225 Q 3.201 8.667 3.201 9.347 L 3.201 9.347 L 2.255 9.347 L 2.711 2.223 L 21.742 2.284 L 22.196 9.347 L 21.25 9.347 L 21.25 9.347 Q 21.25 8.667 20.912 7.225 L 20.912 7.225 L 20.912 7.225 Q 20.574 5.783 19.594 4.822 L 19.594 4.822 L 19.594 4.822 Q 18.039 3.322 15.91 3.322 L 15.91 3.322 L 14.693 3.322 L 14.693 3.322 Q 14.186 3.322 13.983 3.474 L 13.983 3.474 L 13.983 3.474 Q 13.78 3.627 13.78 3.955 L 13.78 3.955 L 13.78 17.951 L 13.78 17.951 Q 13.78 18.585 14.693 18.585 L 14.693 18.585 L 17.937 18.585 L 17.937 19.335 L 6.513 19.335 Z  M 25.238 19.335 L 25.238 18.772 L 26.658 18.772 L 26.658 18.772 Q 27.063 18.772 27.232 18.655 L 27.232 18.655 L 27.232 18.655 Q 27.401 18.538 27.401 18.256 L 27.401 18.256 L 27.401 9.722 L 27.401 9.722 Q 27.401 9.441 27.232 9.324 L 27.232 9.324 L 27.232 9.324 Q 27.063 9.206 26.658 9.206 L 26.658 9.206 L 25.238 9.206 L 25.238 8.644 L 29.835 8.644 L 29.835 10.988 L 29.97 11.012 L 29.97 11.012 Q 30.68 9.793 31.812 9.078 L 31.812 9.078 L 31.812 9.078 Q 32.944 8.362 34.229 8.362 L 34.229 8.362 L 34.229 8.362 Q 35.513 8.362 36.324 8.878 L 36.324 8.878 L 36.324 8.878 Q 37.135 9.394 37.135 10.285 L 37.135 10.285 L 37.135 10.285 Q 37.135 10.801 36.612 11.293 L 36.612 11.293 L 36.612 11.293 Q 36.088 11.785 35.276 11.785 L 35.276 11.785 L 35.276 11.785 Q 34.634 11.785 34.195 11.551 L 34.195 11.551 L 34.195 11.551 Q 33.756 11.317 33.756 10.895 L 33.756 10.895 L 33.756 10.895 Q 33.756 10.402 34.431 10.05 L 34.431 10.05 L 34.431 10.05 Q 34.736 9.91 34.888 9.793 L 34.888 9.793 L 34.888 9.793 Q 35.04 9.675 35.04 9.488 L 35.04 9.488 L 35.04 9.488 Q 35.04 9.277 34.753 9.148 L 34.753 9.148 L 34.753 9.148 Q 34.465 9.019 33.958 9.019 L 33.958 9.019 L 33.958 9.019 Q 32.911 9.019 31.947 9.722 L 31.947 9.722 L 31.947 9.722 Q 30.984 10.426 30.409 11.551 L 30.409 11.551 L 30.409 11.551 Q 29.835 12.676 29.835 13.895 L 29.835 13.895 L 29.835 18.256 L 29.835 18.256 Q 29.835 18.538 30.004 18.655 L 30.004 18.655 L 30.004 18.655 Q 30.173 18.772 30.578 18.772 L 30.578 18.772 L 31.998 18.772 L 31.998 19.335 L 25.238 19.335 Z  M 43.76 19.616 L 43.76 19.616 Q 41.969 19.616 40.667 19.007 L 40.667 19.007 L 40.667 19.007 Q 39.366 18.397 39.366 16.85 L 39.366 16.85 L 39.366 16.85 Q 39.366 15.654 40.245 14.974 L 40.245 14.974 L 40.245 14.974 Q 41.124 14.294 42.29 14.001 L 42.29 14.001 L 42.29 14.001 Q 43.456 13.708 45.112 13.497 L 45.112 13.497 L 48.222 13.098 L 48.222 11.106 L 48.222 11.106 Q 48.222 8.925 45.078 8.925 L 45.078 8.925 L 45.078 8.925 Q 43.929 8.925 42.983 9.335 L 42.983 9.335 L 42.983 9.335 Q 42.036 9.746 42.036 10.261 L 42.036 10.261 L 42.036 10.261 Q 42.036 10.496 42.138 10.613 L 42.138 10.613 L 42.138 10.613 Q 42.205 10.684 42.357 10.754 L 42.357 10.754 L 42.357 10.754 Q 42.51 10.824 42.645 10.848 L 42.645 10.848 L 42.645 10.848 Q 43.253 10.965 43.574 11.176 L 43.574 11.176 L 43.574 11.176 Q 43.895 11.387 43.895 11.762 L 43.895 11.762 L 43.895 11.762 Q 43.895 12.254 43.473 12.465 L 43.473 12.465 L 43.473 12.465 Q 43.05 12.676 42.408 12.676 L 42.408 12.676 L 42.408 12.676 Q 41.665 12.676 41.056 12.278 L 41.056 12.278 L 41.056 12.278 Q 40.448 11.879 40.448 11.129 L 40.448 11.129 L 40.448 11.129 Q 40.448 10.261 41.141 9.628 L 41.141 9.628 L 41.141 9.628 Q 41.834 8.995 42.932 8.679 L 42.932 8.679 L 42.932 8.679 Q 44.03 8.362 45.18 8.362 L 45.18 8.362 L 45.18 8.362 Q 47.41 8.362 49.033 9.171 L 49.033 9.171 L 49.033 9.171 Q 50.655 9.98 50.655 11.692 L 50.655 11.692 L 50.655 17.459 L 50.655 17.459 Q 50.655 18.631 51.703 18.631 L 51.703 18.631 L 51.703 18.631 Q 52.548 18.631 52.92 17.951 L 52.92 17.951 L 52.92 17.951 Q 53.291 17.272 53.291 16.287 L 53.291 16.287 L 53.9 16.287 L 53.9 16.287 Q 53.9 17.694 53.308 18.655 L 53.308 18.655 L 53.308 18.655 Q 52.717 19.616 51.196 19.616 L 51.196 19.616 L 51.196 19.616 Q 49.743 19.616 49.016 19.018 L 49.016 19.018 L 49.016 19.018 Q 48.289 18.42 48.222 17.365 L 48.222 17.365 L 48.053 17.318 L 48.053 17.318 Q 47.546 18.139 46.413 18.878 L 46.413 18.878 L 46.413 18.878 Q 45.281 19.616 43.76 19.616 L 43.76 19.616 Z  M 44.301 18.772 L 44.301 18.772 Q 45.822 18.772 46.684 17.94 L 46.684 17.94 L 46.684 17.94 Q 47.546 17.107 48.222 15.818 L 48.222 15.818 L 48.222 13.591 L 45.281 14.036 L 45.281 14.036 Q 43.659 14.271 42.932 14.962 L 42.932 14.962 L 42.932 14.962 Q 42.205 15.654 42.205 16.92 L 42.205 16.92 L 42.205 16.92 Q 42.205 17.998 42.847 18.385 L 42.847 18.385 L 42.847 18.385 Q 43.49 18.772 44.301 18.772 L 44.301 18.772 Z  M 62.35 19.616 L 56.773 10.379 L 56.773 10.379 Q 56.435 9.769 56.08 9.488 L 56.08 9.488 L 56.08 9.488 Q 55.725 9.206 55.015 9.206 L 55.015 9.206 L 54.035 9.206 L 54.035 8.644 L 61.336 8.644 L 61.336 9.206 L 60.389 9.206 L 60.389 9.206 Q 59.984 9.206 59.646 9.359 L 59.646 9.359 L 59.646 9.359 Q 59.308 9.511 59.308 9.769 L 59.308 9.769 L 59.308 9.769 Q 59.308 10.168 59.511 10.543 L 59.511 10.543 L 63.296 16.873 L 66.034 11.317 L 66.034 11.317 Q 66.169 11.035 66.287 10.684 L 66.287 10.684 L 66.287 10.684 Q 66.406 10.332 66.406 10.121 L 66.406 10.121 L 66.406 10.121 Q 66.406 9.722 66.068 9.464 L 66.068 9.464 L 66.068 9.464 Q 65.73 9.206 65.189 9.206 L 65.189 9.206 L 64.378 9.206 L 64.378 8.644 L 70.529 8.644 L 70.529 9.206 L 69.752 9.206 L 69.752 9.206 Q 69.008 9.206 68.383 9.546 L 68.383 9.546 L 68.383 9.546 Q 67.758 9.886 67.42 10.59 L 67.42 10.59 L 62.958 19.616 L 62.35 19.616 Z  M 78.303 19.616 L 78.303 19.616 Q 75.16 19.616 73.25 18.139 L 73.25 18.139 L 73.25 18.139 Q 71.34 16.662 71.34 14.036 L 71.34 14.036 L 71.34 14.036 Q 71.34 12.536 72.185 11.234 L 72.185 11.234 L 72.185 11.234 Q 73.03 9.933 74.534 9.148 L 74.534 9.148 L 74.534 9.148 Q 76.038 8.362 77.897 8.362 L 77.897 8.362 L 77.897 8.362 Q 79.959 8.362 81.277 9.136 L 81.277 9.136 L 81.277 9.136 Q 82.595 9.91 83.187 11.094 L 83.187 11.094 L 83.187 11.094 Q 83.778 12.278 83.778 13.52 L 83.778 13.52 L 83.778 13.52 Q 83.778 13.778 83.542 13.86 L 83.542 13.86 L 83.542 13.86 Q 83.305 13.942 82.731 13.942 L 82.731 13.942 L 74.315 13.942 L 74.315 13.942 Q 74.315 16.287 75.278 17.67 L 75.278 17.67 L 75.278 17.67 Q 76.241 19.053 78.438 19.053 L 78.438 19.053 L 78.438 19.053 Q 79.993 19.053 81.362 18.233 L 81.362 18.233 L 81.362 18.233 Q 82.731 17.412 83.102 15.677 L 83.102 15.677 L 83.914 15.677 L 83.914 15.677 Q 83.711 17.389 82.207 18.502 L 82.207 18.502 L 82.207 18.502 Q 80.703 19.616 78.303 19.616 L 78.303 19.616 Z  M 74.315 13.38 L 80.872 13.38 L 80.872 13.38 Q 80.872 11.504 80.162 10.215 L 80.162 10.215 L 80.162 10.215 Q 79.452 8.925 77.83 8.925 L 77.83 8.925 L 77.83 8.925 Q 76.106 8.925 75.21 10.226 L 75.21 10.226 L 75.21 10.226 Q 74.315 11.528 74.315 13.38 L 74.315 13.38 Z  M 86.212 19.335 L 86.212 18.772 L 87.969 18.772 L 87.969 18.772 Q 88.375 18.772 88.544 18.655 L 88.544 18.655 L 88.544 18.655 Q 88.713 18.538 88.713 18.256 L 88.713 18.256 L 88.713 3.72 L 88.713 3.72 Q 88.713 3.439 88.544 3.322 L 88.544 3.322 L 88.544 3.322 Q 88.375 3.205 87.969 3.205 L 87.969 3.205 L 86.212 3.205 L 86.212 2.642 L 91.147 2.642 L 91.147 18.256 L 91.147 18.256 Q 91.147 18.538 91.316 18.655 L 91.316 18.655 L 91.316 18.655 Q 91.485 18.772 91.89 18.772 L 91.89 18.772 L 93.648 18.772 L 93.648 19.335 L 86.212 19.335 Z " fill="rgb(6,130,166)"/></g></g></svg>