<?xml version="1.0" encoding="UTF-8" standalone="no"?><!-- Generator: Gravit.io --><svg xmlns="http://www.w3.org/2000/svg" xmlns:xlink="http://www.w3.org/1999/xlink" style="isolation:isolate" viewBox="0 0 200 200" width="200pt" height="200pt"><defs><clipPath id="_clipPath_d7WWJ068aCWsmB3mGa40yLt3eWxiCt1k"><rect width="200" height="200"/></clipPath></defs><g clip-path="url(#_clipPath_d7WWJ068aCWsmB3mGa40yLt3eWxiCt1k)"><path d=" M 46.745 150.679 L 46.745 144.753 L 70.169 144.753 L 70.169 144.753 Q 76.757 144.753 76.757 139.754 L 76.757 139.754 L 76.757 33.111 L 76.757 33.111 Q 76.757 30.518 75.293 29.315 L 75.293 29.315 L 75.293 29.315 Q 73.829 28.111 70.169 28.111 L 70.169 28.111 L 61.384 28.111 L 61.384 28.111 Q 46.013 28.111 34.788 39.962 L 34.788 39.962 L 34.788 39.962 Q 27.712 47.553 25.272 58.941 L 25.272 58.941 L 25.272 58.941 Q 22.832 70.328 22.832 75.698 L 22.832 75.698 L 16 75.698 L 17.952 19.265 L 158.01 19.265 L 159.962 75.698 L 153.13 75.698 L 153.13 75.698 Q 153.13 70.328 150.689 58.941 L 150.689 58.941 L 150.689 58.941 Q 148.25 47.553 141.174 39.962 L 141.174 39.962 L 141.174 39.962 Q 129.95 28.111 114.577 28.111 L 114.577 28.111 L 105.793 28.111 L 105.793 28.111 Q 102.133 28.111 100.669 29.315 L 100.669 29.315 L 100.669 29.315 Q 99.205 30.518 99.205 33.111 L 99.205 33.111 L 99.205 139.754 L 99.205 139.754 Q 99.205 144.753 105.793 144.753 L 105.793 144.753 L 129.217 144.753 L 129.217 150.679 L 46.745 150.679 Z " fill="rgb(6,130,166)"/><path d=" M 68.307 179.976 L 68.307 175.318 L 82.995 175.318 L 82.995 175.318 Q 88.504 175.318 88.504 171.388 L 88.504 171.388 L 88.504 84.922 L 88.504 84.922 Q 88.504 82.884 87.178 81.938 L 87.178 81.938 L 87.178 81.938 Q 85.851 80.992 82.995 80.992 L 82.995 80.992 L 78.908 81.33 L 78.908 76.672 L 134.814 76.334 L 134.814 76.334 Q 146.85 76.334 157.357 79.536 L 157.357 79.536 L 157.357 79.536 Q 167.863 82.739 174.187 88.343 L 174.187 88.343 L 174.187 88.343 Q 180.512 93.947 180.512 101.08 L 180.512 101.08 L 180.512 101.08 Q 180.512 110.978 171.127 117.383 L 171.127 117.383 L 171.127 117.383 Q 161.743 123.788 149.298 125.68 L 149.298 125.68 L 149.298 126.263 L 149.298 126.263 Q 157.663 126.699 165.925 129.975 L 165.925 129.975 L 165.925 129.975 Q 174.187 133.25 179.594 138.927 L 179.594 138.927 L 179.594 138.927 Q 185 144.604 185 151.736 L 185 151.736 L 185 151.736 Q 185 160.616 178.472 167.021 L 178.472 167.021 L 178.472 167.021 Q 171.944 173.426 161.029 176.701 L 161.029 176.701 L 161.029 176.701 Q 150.114 179.976 137.058 179.976 L 137.058 179.976 L 68.307 179.976 Z  M 107.272 95.978 L 107.272 123.497 L 133.997 123.497 L 133.997 123.497 Q 150.523 123.497 156.541 117.456 L 156.541 117.456 L 156.541 117.456 Q 162.559 111.415 162.559 101.08 L 162.559 101.08 L 162.559 101.08 Q 162.559 92.346 154.807 86.669 L 154.807 86.669 L 154.807 86.669 Q 147.054 80.992 135.63 80.992 L 135.63 80.992 L 112.781 80.992 L 112.781 80.992 Q 109.924 80.992 108.598 81.938 L 108.598 81.938 L 108.598 81.938 Q 107.272 82.884 107.272 84.922 L 107.272 84.922 L 107.272 95.978 Z  M 112.781 175.318 L 134.814 175.318 L 134.814 175.318 Q 147.259 175.318 155.317 170.005 L 155.317 170.005 L 155.317 170.005 Q 163.375 164.692 163.375 151.736 L 163.375 151.736 L 163.375 151.736 Q 163.375 138.781 155.317 133.468 L 155.317 133.468 L 155.317 133.468 Q 147.259 128.155 134.814 128.155 L 134.814 128.155 L 107.272 128.155 L 107.272 171.388 L 107.272 171.388 Q 107.272 175.318 112.781 175.318 L 112.781 175.318 Z " fill="rgb(255,136,132)"/><path d=" M 99.142 76.572 L 99.142 139.282 L 99.142 139.282 Q 98.777 144.053 106.05 144.845 L 107.204 144.845 L 107.262 150.631 L 88.387 150.692 L 88.441 84.945 L 88.441 84.945 Q 88.441 82.907 87.115 81.961 L 87.115 81.961 L 87.115 81.961 Q 85.789 81.015 82.932 81.015 L 82.932 81.015 L 78.845 81.353 L 78.845 76.695 L 99.142 76.572 Z  M 96.236 138.866" fill-rule="evenodd" fill="rgb(242,94,116)"/></g></svg>